<?xml version="1.0" encoding="iso-8859-1"?>
<!-- Generator: Adobe Illustrator 19.0.0, SVG Export Plug-In . SVG Version: 6.00 Build 0)  -->
<svg version="1.1" id="Capa_1" xmlns="http://www.w3.org/2000/svg" xmlns:xlink="http://www.w3.org/1999/xlink" x="0px" y="0px"
	 viewBox="0 0 468.308 468.308" style="enable-background:new 0 0 468.308 468.308;" xml:space="preserve">
<g>
	
		<rect x="405.989" y="12.469" transform="matrix(-0.7071 0.7071 -0.7071 -0.7071 742.3856 -193.3494)" style="fill:#64798A;" width="10.496" height="89.22"/>
	
		<rect x="389.282" y="29.173" transform="matrix(-0.7071 0.7071 -0.7071 -0.7071 725.6771 -153.0195)" style="fill:#64798A;" width="10.496" height="89.22"/>
	
		<rect x="422.65" y="-4.212" transform="matrix(-0.7071 0.7071 -0.7071 -0.7071 759.0338 -233.6066)" style="fill:#64798A;" width="10.496" height="89.22"/>
</g>
<path style="fill:#DC8744;" d="M246.087,373.761c4.628-24.29,19.605-45.883,41.761-56.86c7.128-3.532,13.726-8.199,19.554-14.028
	c33.536-33.537,28.943-92.502-10.258-131.703s-98.167-43.794-131.703-10.258c-5.828,5.828-10.496,12.426-14.028,19.554
	c-10.977,22.156-32.57,37.133-56.86,41.761c-22.366,4.262-43.472,14.86-60.492,31.88c-47.169,47.169-45.081,125.735,4.665,175.481
	c49.746,49.746,128.311,51.834,175.481,4.665C231.227,417.233,241.825,396.127,246.087,373.761z"/>
<rect x="262.001" y="32.483" transform="matrix(-0.7071 -0.7071 0.7071 -0.7071 352.0574 516.4708)" style="fill:#27A2DB;" width="41.984" height="305.678"/>
<ellipse style="fill:#3A556A;" cx="174.933" cy="293.436" rx="45.144" ry="45.144"/>
<path style="fill:#E1E6E9;" d="M119.58,413.334l-64.6-64.6c-4.14-4.14-4.14-10.853,0-14.993h0c4.14-4.14,10.853-4.14,14.993,0
	l64.6,64.6c4.14,4.14,4.14,10.853,0,14.993h0C130.433,417.474,123.72,417.474,119.58,413.334z"/>
<g>
	<path style="fill:#3A556A;" d="M394.865,109.152l-35.703-35.703c-2.438-2.438-2.438-6.392,0-8.83L418.77,5.012
		c2.438-2.438,6.392-2.438,8.83,0l35.703,35.703c2.438,2.438,2.438,6.392,0,8.83l-59.607,59.607
		C401.257,111.59,397.304,111.59,394.865,109.152z"/>
	
		<rect x="458.026" y="66.277" transform="matrix(-0.7071 -0.7071 0.7071 -0.7071 735.0443 451.5366)" style="fill:#3A556A;" width="6.025" height="14.517"/>
	
		<rect x="441.335" y="82.933" transform="matrix(-0.7071 -0.7071 0.7071 -0.7071 694.7729 468.1679)" style="fill:#3A556A;" width="6.025" height="14.517"/>
	
		<rect x="424.654" y="99.658" transform="matrix(-0.7071 -0.7071 0.7071 -0.7071 654.4713 484.9235)" style="fill:#3A556A;" width="6.025" height="14.517"/>
	
		<rect x="391.756" y="0.004" transform="matrix(-0.7071 -0.7071 0.7071 -0.7071 668.7765 291.5421)" style="fill:#3A556A;" width="6.025" height="14.517"/>
	
		<rect x="375.087" y="16.661" transform="matrix(-0.7071 -0.7071 0.7071 -0.7071 628.5422 308.1903)" style="fill:#3A556A;" width="6.025" height="14.517"/>
	
		<rect x="358.427" y="33.397" transform="matrix(-0.7071 -0.7071 0.7071 -0.7071 588.2675 324.9804)" style="fill:#3A556A;" width="6.025" height="14.517"/>
</g>
<g>
</g>
<g>
</g>
<g>
</g>
<g>
</g>
<g>
</g>
<g>
</g>
<g>
</g>
<g>
</g>
<g>
</g>
<g>
</g>
<g>
</g>
<g>
</g>
<g>
</g>
<g>
</g>
<g>
</g>
</svg>
